<?xml version="1.0" encoding="UTF-8"?>
<svg width="472px" height="140px" viewBox="0 0 472 140" version="1.1" xmlns="http://www.w3.org/2000/svg" xmlns:xlink="http://www.w3.org/1999/xlink">
    <!-- Generator: Sketch 63.1 (92452) - https://sketch.com -->
    <title>Triangle Pattern Copy 2</title>
    <desc>Created with Sketch.</desc>
    <defs>
        <linearGradient x1="2.70602306%" y1="50%" x2="100%" y2="50%" id="linearGradient-1">
            <stop stop-color="#004EFF" offset="0%"></stop>
            <stop stop-color="#FA0000" offset="100%"></stop>
        </linearGradient>
        <rect id="path-2" x="0" y="0" width="432" height="100" rx="7.81751825"></rect>
        <filter x="-7.5%" y="-27.5%" width="115.0%" height="165.0%" filterUnits="objectBoundingBox" id="filter-4">
            <feOffset dx="0" dy="5" in="SourceAlpha" result="shadowOffsetOuter1"></feOffset>
            <feGaussianBlur stdDeviation="10" in="shadowOffsetOuter1" result="shadowBlurOuter1"></feGaussianBlur>
            <feColorMatrix values="0 0 0 0 0.117647059   0 0 0 0 0.529411765   0 0 0 0 0.941176471  0 0 0 0.2 0" type="matrix" in="shadowBlurOuter1"></feColorMatrix>
        </filter>
        <linearGradient x1="50%" y1="0%" x2="50%" y2="100%" id="linearGradient-5">
            <stop stop-color="#F9404A" offset="0%"></stop>
            <stop stop-color="#F01EA8" stop-opacity="0" offset="100%"></stop>
        </linearGradient>
        <ellipse id="path-6" cx="100.991687" cy="157.550734" rx="54.9057885" ry="54.8019319"></ellipse>
        <filter x="-29.6%" y="-25.1%" width="159.2%" height="159.3%" filterUnits="objectBoundingBox" id="filter-7">
            <feOffset dx="0" dy="5" in="SourceAlpha" result="shadowOffsetOuter1"></feOffset>
            <feGaussianBlur stdDeviation="10" in="shadowOffsetOuter1" result="shadowBlurOuter1"></feGaussianBlur>
            <feColorMatrix values="0 0 0 0 0.117647059   0 0 0 0 0.529411765   0 0 0 0 0.941176471  0 0 0 0.2 0" type="matrix" in="shadowBlurOuter1"></feColorMatrix>
        </filter>
        <linearGradient x1="50%" y1="0%" x2="50%" y2="100%" id="linearGradient-8">
            <stop stop-color="#F94040" offset="0%"></stop>
            <stop stop-color="#F01E98" stop-opacity="0" offset="100%"></stop>
        </linearGradient>
        <ellipse id="path-9" cx="77.1908031" cy="78.1402513" rx="54.9057885" ry="54.8019319"></ellipse>
        <filter x="-29.6%" y="-25.1%" width="159.2%" height="159.3%" filterUnits="objectBoundingBox" id="filter-10">
            <feOffset dx="0" dy="5" in="SourceAlpha" result="shadowOffsetOuter1"></feOffset>
            <feGaussianBlur stdDeviation="10" in="shadowOffsetOuter1" result="shadowBlurOuter1"></feGaussianBlur>
            <feColorMatrix values="0 0 0 0 0.117647059   0 0 0 0 0.529411765   0 0 0 0 0.941176471  0 0 0 0.2 0" type="matrix" in="shadowBlurOuter1"></feColorMatrix>
        </filter>
    </defs>
    <g id="Page-1" stroke="none" stroke-width="1" fill="none" fill-rule="evenodd">
        <g id="Dashboard-Copy" transform="translate(-484.000000, -154.000000)">
            <g id="Triangle-Pattern-Copy-2" transform="translate(504.000000, 169.000000)">
                <mask id="mask-3" fill="white">
                    <use xlink:href="#path-2"></use>
                </mask>
                <g id="Mask">
                    <use fill="black" fill-opacity="1" filter="url(#filter-4)" xlink:href="#path-2"></use>
                    <use fill="url(#linearGradient-1)" fill-rule="evenodd" xlink:href="#path-2"></use>
                </g>
                <g id="Triangle-Pattern" mask="url(#mask-3)">
                    <g transform="translate(387.559723, 37.927550) rotate(-371.000000) translate(-387.559723, -37.927550) translate(300.559723, -77.572450)">
                        <g id="Oval-6" transform="translate(100.991687, 157.550734) rotate(-25.000000) translate(-100.991687, -157.550734) ">
                            <use fill="black" fill-opacity="1" filter="url(#filter-7)" xlink:href="#path-6"></use>
                            <use fill="url(#linearGradient-5)" fill-rule="evenodd" xlink:href="#path-6"></use>
                        </g>
                        <g id="Oval-6-Copy-3" transform="translate(77.190803, 78.140251) rotate(-51.000000) translate(-77.190803, -78.140251) ">
                            <use fill="black" fill-opacity="1" filter="url(#filter-10)" xlink:href="#path-9"></use>
                            <use fill="url(#linearGradient-8)" fill-rule="evenodd" xlink:href="#path-9"></use>
                        </g>
                    </g>
                </g>
                <g id="比特币" mask="url(#mask-3)" fill="#FFFFFF" fill-opacity="0.1" fill-rule="nonzero">
                    <g transform="translate(-25.000000, 0.000000)" id="Shape">
                        <path d="M114.567705,57.1582402 C121.679841,53.4336352 125.546621,45.5405684 124.120256,37.6590902 C122.754739,25.5590902 107.73405,20.8521902 96.1483943,19.5090902 L96.1483943,1.35909024 L84.5475668,1.35909024 L84.5475668,19.5090902 L77.0463254,19.5090902 L77.0463254,1.35909024 L65.4485323,1.35909024 L65.4485323,19.5090902 L42.2529461,19.5090902 L42.2529461,31.6090902 L51.1197047,31.6090902 C55.2132219,31.6090902 56.5817737,32.9521902 56.5817737,35.6414152 L56.5817737,86.0590902 C56.863283,87.4426843 56.4768521,88.8777641 55.538134,89.9348321 C54.5994159,90.9919001 53.2173242,91.5483113 51.8054978,91.4375402 L43.6123943,91.4375402 L42.9296357,103.53754 L65.4424633,103.53754 L65.4424633,122.35909 L77.0402564,122.35909 L77.0402564,103.54359 L84.5445323,103.54359 L84.5445323,122.35909 L96.1453599,122.35909 L96.1453599,103.54359 L98.8763943,103.54359 C122.754739,103.54359 130.252946,92.1090902 130.252946,76.6513402 C130.252946,61.1935902 114.561636,57.1552152 114.561636,57.1552152 L114.567705,57.1582402 Z M77.2529461,32.3590902 L85.3574653,32.3590902 C90.7604781,32.3590902 102.226872,33.0250297 102.226872,42.360181 C102.637081,48.4322974 98.1602995,53.737816 92.1022263,54.3590902 L77.2529461,54.3590902 L77.2529461,32.3590902 Z M90.0532554,90.3590902 L77.2529461,90.3590902 L77.2529461,66.3590902 L92.0727798,66.3590902 C95.4436478,66.3590902 108.252946,67.6910902 108.252946,76.3610902 C108.252946,85.0310902 102.191376,90.3590902 90.0622444,90.3590902 L90.0532554,90.3590902 Z" transform="translate(86.370134, 61.859090) rotate(-30.000000) translate(-86.370134, -61.859090) "></path>
                    </g>
                </g>
            </g>
        </g>
    </g>
</svg>