<svg xmlns="http://www.w3.org/2000/svg" xmlns:xlink="http://www.w3.org/1999/xlink" viewBox="0 0 420 120"><defs><style>.cls-1{isolation:isolate;}.cls-2{fill:url(#linear-gradient);}.cls-3{fill:blue;opacity:0.31;mix-blend-mode:multiply;}.cls-4{fill:url(#linear-gradient-2);}</style><linearGradient id="linear-gradient" x1="53.56" y1="-4.97" x2="382.5" y2="184.94" gradientUnits="userSpaceOnUse"><stop offset="0" stop-color="#05f"/><stop offset="0.09" stop-color="#0a52f5"/><stop offset="0.23" stop-color="#2648d9"/><stop offset="0.42" stop-color="#523aad"/><stop offset="0.65" stop-color="#90256f"/><stop offset="0.9" stop-color="#de0b21"/><stop offset="1" stop-color="red"/></linearGradient><linearGradient id="linear-gradient-2" x1="36.37" y1="30.2" x2="216.8" y2="156.55" gradientUnits="userSpaceOnUse"><stop offset="0.5" stop-opacity="0"/><stop offset="1" stop-opacity="0.87"/></linearGradient></defs><title>Asset 10</title><g class="cls-1"><g id="Layer_2" data-name="Layer 2"><g id="Layer_1-2" data-name="Layer 1"><path class="cls-2" d="M420,118.45A120,120,0,0,0,210,40.64,120,120,0,0,0,0,120H60c0-.52,0-1,0-1.55A60,60,0,0,1,180,120h60c0-.52,0-1,0-1.55A60,60,0,0,1,360,120h60C420,119.48,420,119,420,118.45Z"/><path class="cls-3" d="M210,40.64A119.51,119.51,0,0,0,180,120h60c0-.52,0-1,0-1.55A119.57,119.57,0,0,0,210,40.64Z"/><path class="cls-4" d="M150,3.78A120.1,120.1,0,0,0,0,120H60c0-.52,0-1,0-1.55A60,60,0,0,1,180,120a119.51,119.51,0,0,1,30-79.36A119.92,119.92,0,0,0,150,3.78Z"/></g></g></g></svg>